<svg id="Шар_1" data-name="Шар 1" xmlns="http://www.w3.org/2000/svg" viewBox="0 0 512 512"><defs><style>.cls-1{fill:#ffa600;}</style></defs><title>Health</title><path class="cls-1" d="M320.2,243.84l-49.7,99.4a16,16,0,0,1-28.9-.6l-56.9-126.3-30,71.7H60.6l182.5,186.5a17.82,17.82,0,0,0,25.7,0L451.4,288H342.3l-22.1-44.2ZM473.7,73.94l-2.4-2.5a131,131,0,0,0-187.4,0L256,100l-27.9-28.5a130.83,130.83,0,0,0-187.4,0l-2.4,2.4C-10.4,123.74-12.5,203,31,256H133.4l35.9-86.2a16,16,0,0,1,29.4-.4l58.2,129.3,49-97.9a16,16,0,0,1,28.6,0L362.1,256H481c43.5-53,41.4-132.3-7.3-182.1Z"/></svg>