<svg id="Шар_1" data-name="Шар 1" xmlns="http://www.w3.org/2000/svg" xmlns:xlink="http://www.w3.org/1999/xlink" viewBox="0 0 1000 456.37"><defs><style>.cls-1{fill:url(#Градієнт_без_назви_11);}.cls-2{fill:url(#Градієнт_без_назви_11-2);}.cls-3{fill:url(#Градієнт_без_назви_11-3);}.cls-4{fill:url(#Градієнт_без_назви_11-4);}.cls-5{fill:url(#Градієнт_без_назви_11-5);}.cls-6{fill:url(#Градієнт_без_назви_11-6);}.cls-7{fill:url(#Градієнт_без_назви_11-7);}.cls-8{fill:url(#Градієнт_без_назви_34);}.cls-9{fill:url(#Градієнт_без_назви_51);}.cls-10{fill:url(#Градієнт_без_назви_15);}.cls-11{fill:url(#Градієнт_без_назви_11-8);}.cls-12{fill:url(#Градієнт_без_назви_11-9);}.cls-13{fill:url(#Градієнт_без_назви_11-10);}.cls-14{fill:url(#Градієнт_без_назви_11-11);}.cls-15{fill:url(#Градієнт_без_назви_11-12);}.cls-16{fill:url(#Градієнт_без_назви_11-13);}.cls-17{fill:url(#Градієнт_без_назви_11-14);}</style><linearGradient id="Градієнт_без_назви_11" x1="293.81" y1="72.74" x2="304.01" y2="246.27" gradientUnits="userSpaceOnUse"><stop offset="0" stop-color="#a9a9aa"/><stop offset="0.36" stop-color="#929292"/><stop offset="1" stop-color="#605f5f"/><stop offset="1" stop-color="#5c5b5c"/></linearGradient><linearGradient id="Градієнт_без_назви_11-2" x1="360" y1="68.85" x2="370.21" y2="242.37" xlink:href="#Градієнт_без_назви_11"/><linearGradient id="Градієнт_без_назви_11-3" x1="440.69" y1="64.1" x2="450.89" y2="237.63" xlink:href="#Градієнт_без_назви_11"/><linearGradient id="Градієнт_без_назви_11-4" x1="527.92" y1="58.97" x2="538.13" y2="232.5" xlink:href="#Градієнт_без_назви_11"/><linearGradient id="Градієнт_без_назви_11-5" x1="605.63" y1="54.4" x2="615.84" y2="227.93" xlink:href="#Градієнт_без_назви_11"/><linearGradient id="Градієнт_без_назви_11-6" x1="679.67" y1="50.04" x2="689.88" y2="223.57" xlink:href="#Градієнт_без_назви_11"/><linearGradient id="Градієнт_без_назви_11-7" x1="773.08" y1="44.55" x2="783.28" y2="218.08" xlink:href="#Градієнт_без_назви_11"/><linearGradient id="Градієнт_без_назви_34" x1="291.36" y1="255.33" x2="270.53" y2="338.74" gradientUnits="userSpaceOnUse"><stop offset="0" stop-color="#f6a710"/><stop offset="1" stop-color="#c55317"/></linearGradient><linearGradient id="Градієнт_без_назви_51" x1="202.88" y1="350.53" x2="247.57" y2="174.03" gradientUnits="userSpaceOnUse"><stop offset="0" stop-color="#bb4717"/><stop offset="0.22" stop-color="#cc5e10"/><stop offset="0.49" stop-color="#dc7409"/><stop offset="0.76" stop-color="#e68105"/><stop offset="1" stop-color="#e98504"/></linearGradient><linearGradient id="Градієнт_без_назви_15" x1="155.18" y1="149.35" x2="338.4" y2="149.35" gradientUnits="userSpaceOnUse"><stop offset="0" stop-color="#f8ae10"/><stop offset="0.49" stop-color="#f9b30e"/><stop offset="1" stop-color="#fbbf09"/></linearGradient><linearGradient id="Градієнт_без_назви_11-8" x1="412.88" y1="65.74" x2="423.09" y2="239.26" xlink:href="#Градієнт_без_назви_11"/><linearGradient id="Градієнт_без_назви_11-9" x1="443.06" y1="63.96" x2="453.27" y2="237.49" xlink:href="#Градієнт_без_назви_11"/><linearGradient id="Градієнт_без_назви_11-10" x1="470.45" y1="62.35" x2="480.65" y2="235.88" xlink:href="#Градієнт_без_назви_11"/><linearGradient id="Градієнт_без_назви_11-11" x1="505.07" y1="60.31" x2="515.28" y2="233.84" xlink:href="#Градієнт_без_назви_11"/><linearGradient id="Градієнт_без_назви_11-12" x1="548.47" y1="57.76" x2="558.68" y2="231.29" xlink:href="#Градієнт_без_назви_11"/><linearGradient id="Градієнт_без_назви_11-13" x1="591.59" y1="55.22" x2="601.8" y2="228.75" xlink:href="#Градієнт_без_назви_11"/><linearGradient id="Градієнт_без_назви_11-14" x1="621.43" y1="53.47" x2="631.64" y2="227" xlink:href="#Градієнт_без_назви_11"/></defs><title>Insolar_wh.transp_1</title><path class="cls-1" d="M319.13,150.6,300.43,249h-17l18.67-98.4Z"/><path class="cls-2" d="M321.12,249l18.68-98.4h19.54l17.28,45.73a262.82,262.82,0,0,1,8.82,30.82l.36-.09c.48-9.52,1.72-19.12,4.35-33.27l8.18-43.19h16L395.61,249H378.25l-17.63-46.6a241.79,241.79,0,0,1-9.4-31.65l-.46.1c-1.07,9.42-3.06,21.49-5.8,36L337,249Z"/><path class="cls-3" d="M419.2,229.62a42.19,42.19,0,0,0,22.2,6.26c9.46,0,18.14-5.06,18.14-14.61,0-6.39-4.22-10.79-13.79-16-11.39-6.12-20-13.92-20-25.68,0-18.87,16.36-30.57,36.26-30.57,10.92,0,18,2.67,21.89,5l-5.59,14.1a36.37,36.37,0,0,0-17.75-4.45c-10.88,0-17,6.3-17,12.88,0,6.75,5.57,10.75,14.78,15.9,12,6.35,19.17,14.23,19.17,26.16,0,19.69-16,31.92-38,31.92-12,0-21.73-3.45-26.13-6.94Z"/><path class="cls-4" d="M582,189.74c0,17.48-6.26,35.58-17.74,46.93-9,8.78-20.94,13.94-35.16,13.94-25.47,0-38.75-18.6-38.75-40.58,0-17.55,6.67-35.93,18.44-47.33A49.93,49.93,0,0,1,543.42,149C569.63,149,582,167.3,582,189.74Zm-60.12-18c-8.57,8.58-13.48,24.73-13.48,37.46,0,14.81,6.63,27.16,23.21,27.16A27,27,0,0,0,550.78,228c8.43-8.44,13.21-25.24,13.21-37.68,0-13-4.51-27-22.67-27C533.78,163.24,527.14,166.51,521.91,171.74Z"/><path class="cls-5" d="M606.09,150.6h17l-15.89,83.57h38.67L643.06,249H587.41Z"/><path class="cls-6" d="M681.38,220.94,668,249H649.89l49.27-98.4h21.29L732.87,249H715.15l-2.88-28.06Zm30-13.15-2.78-24.46c-.48-5.27-1.06-12.87-1.54-18.76h-.32c-2.58,6-5.17,12.92-8,18.68l-12,24.54Z"/><path class="cls-7" d="M763,152.26c6.32-1.5,15.47-2.32,24.14-2.32,9.55,0,18.67,1.78,24.81,6.33a21.06,21.06,0,0,1,9.25,17.89c0,14.45-10.25,24.26-22.76,28.09l-.06.44c6.31,2.45,9.19,9.33,10,18.76,1.16,12.25,1.91,23.54,3.43,27.55H794.33c-.69-2.37-1.71-11.68-2.55-23.45-.84-12.65-5.34-17.18-14.31-17.18h-8.36L761.41,249H744.55Zm8.63,43.22h9.64c13.19,0,22.22-8.3,22.22-18.9,0-9.11-7.23-13.19-16.83-13.19a37.13,37.13,0,0,0-9.1.86Z"/><path class="cls-8" d="M189.64,203.93l40.53,48.43s-1.52,75.12,148.26,113.09c0,0-205.83-5.18-188.94-158"/><path class="cls-9" d="M141.34,134.61l29.43,50.28S127.64,334.32,315.54,364.54C315.54,364.54,88.91,370,141.34,134.61Z"/><path class="cls-10" d="M155.18,118.43s70-31.15,183.22-21.74c0,0-78,16.54-100.4,107.1L237,124.54C224.5,116.5,155.18,118.43,155.18,118.43Z"/><path class="cls-11" d="M439.06,325.85a30.69,30.69,0,0,1-12,2.08c-11.89,0-19.53-7.38-19.53-19.28,0-9.58,4.11-17.68,10.78-22.6a27.43,27.43,0,0,1,17-5.43c5,0,8.74,1.2,10,2l-2.29,6.44a19.64,19.64,0,0,0-8.63-1.67,17.76,17.76,0,0,0-11.69,4.27c-4.05,3.55-6.65,9.32-6.65,16,0,7.72,4,13.46,13,13.46a23.35,23.35,0,0,0,9.21-1.72Z"/><path class="cls-12" d="M453.42,281.34h7.93l-7.4,39h18l-1.31,6.91h-26Z"/><path class="cls-13" d="M493,281.34l-8.72,45.87h-7.92l8.7-45.87Z"/><path class="cls-14" d="M532.3,327.21l3-21.57c.69-4.69,1.7-11.18,2.81-16.83h-.2c-2.37,5.36-5.08,11.28-7.58,16.18l-11.3,21.68h-6.14l-2.43-21.35c-.53-5.14-.94-11-1.21-16.51h-.15c-1.16,5.26-2.56,12.17-3.69,16.84l-5.29,21.56h-7.35l11.68-45.87h10.45l2.44,21.43c.35,4.12.86,8.86.93,13.2h.23c1.64-4.34,3.86-9.14,5.83-13.14l11.07-21.49h10.63l-6,45.87Z"/><path class="cls-15" d="M559.66,314.13l-6.25,13.08H545l23-45.87h9.93l5.78,45.87H575.4l-1.34-13.08Zm14-6.13-1.3-11.4c-.22-2.46-.49-6-.71-8.75h-.16c-1.2,2.77-2.41,6-3.71,8.71L562.19,308Z"/><path class="cls-16" d="M600.4,288.25H587.72l1.36-6.91h33.39l-1.33,6.91H608.32l-7.36,39H593Z"/><path class="cls-17" d="M647.38,306.81H630.92l-2.59,13.63h18.53l-1.3,6.77H619.1l8.71-45.87h25.46L652,288.1H634.48l-2.3,12h16.51Z"/></svg>