<svg id="Шар_1" data-name="Шар 1" xmlns="http://www.w3.org/2000/svg" viewBox="0 0 512 512"><defs><style>.cls-1{fill:#ffa600;}</style></defs><title>Integrated</title><path class="cls-1" d="M488.48,324.22a93.9,93.9,0,0,0,0-34.09l20.65-11.92a5.81,5.81,0,0,0,2.64-6.81,120.19,120.19,0,0,0-26.57-45.93,5.83,5.83,0,0,0-7.2-1.12l-20.65,11.93a93.76,93.76,0,0,0-29.52-17.05V195.39a5.83,5.83,0,0,0-4.56-5.69,120.79,120.79,0,0,0-53,0,5.83,5.83,0,0,0-4.56,5.69v23.84a93.76,93.76,0,0,0-29.52,17.05l-20.65-11.93a5.85,5.85,0,0,0-7.2,1.12,120.19,120.19,0,0,0-26.57,45.93,5.91,5.91,0,0,0,2.64,6.81l20.65,11.92a93.9,93.9,0,0,0,0,34.09l-20.65,11.92a5.79,5.79,0,0,0-2.64,6.8,120.71,120.71,0,0,0,26.57,45.93,5.83,5.83,0,0,0,7.2,1.12l20.65-11.92a93.92,93.92,0,0,0,29.52,17V419a5.82,5.82,0,0,0,4.56,5.68,120.79,120.79,0,0,0,53,0,5.82,5.82,0,0,0,4.56-5.68V395.11a93.92,93.92,0,0,0,29.52-17L478,390a5.85,5.85,0,0,0,7.2-1.12,120.12,120.12,0,0,0,26.57-45.93,5.89,5.89,0,0,0-2.64-6.8ZM396.86,346a38.81,38.81,0,1,1,38.81-38.81A38.85,38.85,0,0,1,396.86,346ZM76.78,230.35a51.21,51.21,0,1,0-51.21-51.21A51.26,51.26,0,0,0,76.78,230.35ZM256,256c1.52,0,3-.4,4.48-.48a147.52,147.52,0,0,1,29-47.37A31.57,31.57,0,0,1,312.68,198a30.75,30.75,0,0,1,15.68,4.24l6.33,3.68c.64-.4,1.28-.72,1.92-1.12a88.59,88.59,0,0,0,9-38.41A89.58,89.58,0,1,0,256,256ZM340.21,411.6c-1.84-1-3.68-2.08-5.44-3.12-6.57,3.84-12.25,7.84-22,7.84a31.8,31.8,0,0,1-23.12-10.08,145.85,145.85,0,0,1-32.17-55.7c-8.56-27.6,19.92-39.77,20.64-40.25q-.12-3.12,0-6.24l-6.32-3.68a32.59,32.59,0,0,1-7.84-6.48c-2.64.16-5.2.48-7.84.48a126.38,126.38,0,0,1-54.82-12.8h-6.64a92.22,92.22,0,0,0-92.26,92.18v23A38.41,38.41,0,0,0,140.8,435.2H345.17a30.8,30.8,0,0,1-5-16.24V411.6ZM138.48,270.84A51.07,51.07,0,0,0,102.39,256H51.18A51.26,51.26,0,0,0,0,307.17v25.61a25.57,25.57,0,0,0,25.6,25.6H78.3A117.39,117.39,0,0,1,138.48,270.84Z"/></svg>