<svg id="Шар_1" data-name="Шар 1" xmlns="http://www.w3.org/2000/svg" viewBox="0 0 512 512"><defs><style>.cls-1{fill:#ffa600;}</style></defs><title>Real estate_512</title><path class="cls-1" d="M403.2,332.79H109.12a6.42,6.42,0,0,0-6.4,6.4l-.08,38.4A6.42,6.42,0,0,0,109,384H403.2a6.42,6.42,0,0,0,6.4-6.4v-38.4A6.42,6.42,0,0,0,403.2,332.79Zm0,76.8H108.88a6.42,6.42,0,0,0-6.4,6.4l-.08,38.4a6.42,6.42,0,0,0,6.4,6.4H403.2a6.42,6.42,0,0,0,6.4-6.4V416A6.42,6.42,0,0,0,403.2,409.59Zm0-153.6H109.28a6.42,6.42,0,0,0-6.4,6.4l-.08,38.4a6.42,6.42,0,0,0,6.4,6.4h294a6.42,6.42,0,0,0,6.4-6.4v-38.4A6.42,6.42,0,0,0,403.2,256Zm85.2-111.2L270.72,54.15a38.52,38.52,0,0,0-29.52,0L23.6,144.79A38.49,38.49,0,0,0,0,180.23V454.39a6.42,6.42,0,0,0,6.4,6.4h64a6.42,6.42,0,0,0,6.4-6.4V256c0-14.08,11.68-25.6,26.08-25.6H409.12c14.4,0,26.08,11.52,26.08,25.6v198.4a6.42,6.42,0,0,0,6.4,6.4h64a6.42,6.42,0,0,0,6.4-6.4V180.23A38.49,38.49,0,0,0,488.4,144.79Z"/></svg>