<svg id="Шар_1" data-name="Шар 1" xmlns="http://www.w3.org/2000/svg" viewBox="0 0 512 512"><defs><style>.cls-1{fill:#ffa600;}</style></defs><title>Schools</title><path class="cls-1" d="M497.87,173.76,274.72,105.2a64,64,0,0,0-37.43,0L14.13,173.76c-18.83,5.79-18.83,30.69,0,36.47l38.9,12a63.06,63.06,0,0,0-14.3,37.51C31,264.12,25.6,272.09,25.6,281.6c0,8.62,4.54,15.88,11.09,20.52L16.26,394A12.8,12.8,0,0,0,28.75,409.6H73.64A12.79,12.79,0,0,0,86.13,394l-20.42-91.9c6.54-4.64,11.09-11.9,11.09-20.52,0-9.26-5.18-17-12.53-21.5a37.75,37.75,0,0,1,16.55-29.37L237.28,278.8a64,64,0,0,0,37.43,0l223.16-68.56c18.84-5.79,18.84-30.69,0-36.48ZM282.23,303.27a89.5,89.5,0,0,1-52.47,0l-116-35.64L102.4,358.4c0,28.28,68.77,51.2,153.6,51.2s153.6-22.92,153.6-51.2l-11.35-90.78Z"/></svg>