<svg id="Шар_1" data-name="Шар 1" xmlns="http://www.w3.org/2000/svg" viewBox="0 0 512 512"><defs><style>.cls-1{fill:#ffa600;}</style></defs><title>State</title><path class="cls-1" d="M468,480H448V24A24,24,0,0,0,424,0H88A24,24,0,0,0,64,24V480H44a12,12,0,0,0-12,12v20H480V492A12,12,0,0,0,468,480ZM160,76a12,12,0,0,1,12-12h40a12,12,0,0,1,12,12v40a12,12,0,0,1-12,12H172a12,12,0,0,1-12-12Zm0,96a12,12,0,0,1,12-12h40a12,12,0,0,1,12,12v40a12,12,0,0,1-12,12H172a12,12,0,0,1-12-12Zm52,148H172a12,12,0,0,1-12-12V268a12,12,0,0,1,12-12h40a12,12,0,0,1,12,12v40A12,12,0,0,1,212,320Zm76,160H224V396a12,12,0,0,1,12-12h40a12,12,0,0,1,12,12Zm64-172a12,12,0,0,1-12,12H300a12,12,0,0,1-12-12V268a12,12,0,0,1,12-12h40a12,12,0,0,1,12,12Zm0-96a12,12,0,0,1-12,12H300a12,12,0,0,1-12-12V172a12,12,0,0,1,12-12h40a12,12,0,0,1,12,12Zm0-96a12,12,0,0,1-12,12H300a12,12,0,0,1-12-12V76a12,12,0,0,1,12-12h40a12,12,0,0,1,12,12Z"/></svg>