<svg id="Capa_1" data-name="Capa 1" xmlns="http://www.w3.org/2000/svg" viewBox="0 0 164.97 164.97"><defs><style>.cls-1{fill:#f7a41a;}</style></defs><title>fan</title><path class="cls-1" d="M153.68,103.61c-8-6.58-16.13-8-23.36-9.19-4.79-.81-8.71-1.48-12.16-3.47,19.31-4.19,33.81-14.16,41.23-28.56,7.13-13.81,6.65-30.32-1.29-45.28C153.28,8,142.82,1.39,131.44.22a31.43,31.43,0,0,0-27.9,11.1c-6.58,8-8,16.13-9.19,23.36-.8,4.76-1.47,8.65-3.42,12.09C86.74,27.45,76.77,12.94,62.36,5.51,48.55-1.61,32.05-1.14,17.08,6.81,8,11.63,1.36,22.09.19,33.46a31.42,31.42,0,0,0,11.1,27.9c8,6.58,16.14,8,23.36,9.19,4.79.81,8.71,1.48,12.17,3.47C27.5,78.21,13,88.18,5.58,102.58c-7.13,13.81-6.65,30.32,1.29,45.28,4.82,9.09,15.29,15.72,26.66,16.9,1.21.12,2.4.18,3.58.18a31.17,31.17,0,0,0,24.32-11.29c6.58-8,8-16.13,9.19-23.35.8-4.76,1.47-8.66,3.42-12.1,4.19,19.33,14.16,33.83,28.57,41.26a45.28,45.28,0,0,0,20.85,5,52.1,52.1,0,0,0,24.43-6.32c9.09-4.82,15.72-15.28,16.89-26.65A31.42,31.42,0,0,0,153.68,103.61Zm-71.19-2.47a18.66,18.66,0,1,1,18.66-18.65A18.68,18.68,0,0,1,82.49,101.14Zm26.65-64c1-6.13,1.94-11.43,5.94-16.27a16.56,16.56,0,0,1,14.82-5.76c6.34.65,12.48,4.35,14.95,9C150.54,34.86,151,46,146.06,55.51c-5.25,10.18-16,17.38-30.52,20.66A33.73,33.73,0,0,0,103,55.8C107.05,49.49,108.18,42.85,109.14,37.17ZM20.87,49.82A16.59,16.59,0,0,1,15.11,35c.65-6.33,4.35-12.48,9-14.94C34.83,14.37,46,13.93,55.48,18.84c10.2,5.26,17.4,16,20.68,30.59A33.69,33.69,0,0,0,55.83,62c-6.33-4.11-13-5.25-18.68-6.21C31,54.72,25.71,53.83,20.87,49.82Zm35,78c-1,6.14-1.94,11.44-5.94,16.28a16.57,16.57,0,0,1-14.82,5.76c-6.33-.65-12.48-4.35-14.94-9C14.43,130.11,14,119,18.91,109.46c5.25-10.18,16-17.38,30.52-20.66A33.7,33.7,0,0,0,62,109.17C57.92,115.48,56.79,122.12,55.83,127.79Zm94,2.18c-.65,6.33-4.35,12.48-9,14.94-10.72,5.7-21.86,6.13-31.37,1.22-10.2-5.26-17.4-16-20.68-30.59A33.69,33.69,0,0,0,109.14,103c6.33,4.11,13,5.25,18.68,6.21,6.14,1,11.44,1.93,16.28,5.94A16.56,16.56,0,0,1,149.86,130Z"/></svg>