<svg id="Шар_1" data-name="Шар 1" xmlns="http://www.w3.org/2000/svg" viewBox="0 0 512 512"><defs><style>.cls-1{fill:#fff;}</style></defs><title>Hotels</title><path class="cls-1" d="M497.78,85.75A14.2,14.2,0,0,0,512,71.56V43.19A14.2,14.2,0,0,0,497.78,29H14.22A14.2,14.2,0,0,0,0,43.19V71.56A14.2,14.2,0,0,0,14.22,85.75H28.43v340.5H14.22A14.2,14.2,0,0,0,0,440.44v28.37A14.2,14.2,0,0,0,14.22,483H227.56V412.06a14.24,14.24,0,0,1,14.22-14.18h28.44a14.24,14.24,0,0,1,14.22,14.18V483H497.78A14.2,14.2,0,0,0,512,468.81V440.44a14.2,14.2,0,0,0-14.22-14.19H483.56V85.75ZM227.56,125.48c0-5.68,5.68-11.35,11.37-11.35h34.14c5.69,0,11.37,5.67,11.37,11.35v34.05c0,5.67-5.68,11.35-11.37,11.35H238.93c-5.69,0-11.37-5.68-11.37-11.35v-34Zm0,85.12c0-5.67,5.68-11.35,11.37-11.35h34.14c5.69,0,11.37,5.67,11.37,11.35v34.05c0,5.68-5.68,11.35-11.37,11.35H238.93c-5.69,0-11.37-5.67-11.37-11.35V210.6ZM113.78,125.48c0-5.68,5.69-11.35,11.38-11.35h34.13c5.69,0,11.38,5.67,11.38,11.35v34.05c0,5.67-5.69,11.35-11.38,11.35H125.16c-5.69,0-11.38-5.68-11.38-11.35v-34ZM159.29,256H125.16c-5.69,0-11.38-5.67-11.38-11.35V210.6c0-5.68,5.69-11.35,11.38-11.35h34.13c5.69,0,11.38,5.67,11.38,11.35v34.05c0,5.67-5.69,11.35-11.38,11.35Zm11.38,113.5a85.33,85.33,0,0,1,170.66,0ZM398.22,244.65c0,5.67-5.69,11.35-11.38,11.35H352.71c-5.69,0-11.38-5.67-11.38-11.35V210.6c0-5.68,5.69-11.35,11.38-11.35h34.13c5.69,0,11.38,5.67,11.38,11.35v34.05Zm0-85.13c0,5.68-5.69,11.36-11.38,11.36H352.71c-5.69,0-11.38-5.68-11.38-11.36V125.47c0-5.67,5.69-11.35,11.38-11.35h34.13c5.69,0,11.38,5.68,11.38,11.35Z"/></svg>