<svg xmlns="http://www.w3.org/2000/svg" xmlns:xlink="http://www.w3.org/1999/xlink" viewBox="0 0 687.74 270.53"><defs><style>.cls-1{fill:url(#Градієнт_без_назви_34);}.cls-2{fill:url(#Градієнт_без_назви_51);}.cls-3{fill:url(#Градієнт_без_назви_15);}.cls-4{fill:#f5f5f5;}</style><linearGradient id="Градієнт_без_назви_34" x1="157.9" y1="160.41" x2="137.06" y2="243.82" gradientUnits="userSpaceOnUse"><stop offset="0" stop-color="#f6a710"/><stop offset="1" stop-color="#c55317"/></linearGradient><linearGradient id="Градієнт_без_назви_51" x1="69.41" y1="255.61" x2="114.1" y2="79.11" gradientUnits="userSpaceOnUse"><stop offset="0" stop-color="#bb4717"/><stop offset="0.22" stop-color="#cc5e10"/><stop offset="0.49" stop-color="#dc7409"/><stop offset="0.76" stop-color="#e68105"/><stop offset="1" stop-color="#e98504"/></linearGradient><linearGradient id="Градієнт_без_назви_15" x1="21.71" y1="54.44" x2="204.93" y2="54.44" gradientUnits="userSpaceOnUse"><stop offset="0" stop-color="#f8ae10"/><stop offset="0.49" stop-color="#f9b30e"/><stop offset="1" stop-color="#fbbf09"/></linearGradient></defs><title>insolar_logo</title><g id="Шар_2" data-name="Шар 2"><g id="Шар_1-2" data-name="Шар 1"><path class="cls-1" d="M56.17,109l40.54,48.43S95.18,232.56,245,270.53c0,0-205.83-5.17-188.94-158"/><path class="cls-2" d="M7.87,39.69,37.3,90S-5.83,239.4,182.07,269.62C182.07,269.62-44.56,275.05,7.87,39.69Z"/><path class="cls-3" d="M21.71,23.51s70-31.15,183.22-21.74c0,0-78,16.54-100.4,107.1l-1-79.25C91,21.58,21.71,23.51,21.71,23.51Z"/><path class="cls-4" d="M185.66,55.68,167,154.08H150l18.68-98.4Z"/><path class="cls-4" d="M187.65,154.08l18.68-98.4h19.54l17.28,45.74A264.32,264.32,0,0,1,252,132.23l.35-.09c.48-9.52,1.72-19.12,4.35-33.27l8.18-43.19h16l-18.67,98.4H244.79l-17.64-46.6c-4.55-12.84-7-20.85-9.39-31.65l-.46.1c-1.08,9.42-3.07,21.49-5.81,36l-7.93,42.11Z"/><path class="cls-4" d="M285.73,134.7A42.2,42.2,0,0,0,307.94,141c9.46,0,18.13-5.06,18.13-14.61,0-6.39-4.22-10.79-13.78-16-11.4-6.12-20-13.91-20-25.68,0-18.87,16.36-30.57,36.26-30.57,10.93,0,18,2.68,21.89,5l-5.59,14.1a36.36,36.36,0,0,0-17.74-4.45c-10.88,0-17,6.3-17,12.89s5.57,10.74,14.78,15.89c12,6.35,19.18,14.23,19.18,26.16,0,19.69-16,31.92-38,31.92-11.95,0-21.73-3.45-26.13-6.94Z"/><path class="cls-4" d="M448.57,94.82c0,17.48-6.27,35.58-17.75,46.93-9,8.78-20.93,13.94-35.15,13.94-25.47,0-38.75-18.6-38.75-40.58,0-17.55,6.67-35.93,18.44-47.33A49.91,49.91,0,0,1,410,54.07C436.16,54.07,448.57,72.38,448.57,94.82Zm-60.13-18C379.88,85.41,375,101.55,375,114.28c0,14.81,6.63,27.16,23.2,27.16a27,27,0,0,0,19.15-8.39c8.42-8.44,13.2-25.24,13.2-37.67,0-13-4.51-27.06-22.66-27.06C400.32,68.32,393.67,71.59,388.44,76.82Z"/><path class="cls-4" d="M472.62,55.68h17l-15.88,83.57h38.66l-2.81,14.83H453.94Z"/><path class="cls-4" d="M547.91,126l-13.4,28.06H516.42l49.27-98.4H587l12.42,98.4H581.68L578.8,126Zm30-13.15-2.78-24.46c-.47-5.27-1.06-12.87-1.53-18.76h-.33c-2.58,5.95-5.17,12.92-8,18.68l-11.94,24.54Z"/><path class="cls-4" d="M629.54,57.34C635.86,55.84,645,55,653.68,55c9.54,0,18.66,1.78,24.8,6.33a21.06,21.06,0,0,1,9.26,17.89c0,14.45-10.26,24.26-22.77,28.09l-.06.44c6.31,2.45,9.2,9.33,10.05,18.76,1.17,12.25,1.91,23.54,3.43,27.55H660.86c-.68-2.37-1.71-11.68-2.55-23.45C657.47,118,653,113.45,644,113.45h-8.36l-7.7,40.63H611.09Zm8.63,43.22h9.63c13.19,0,22.22-8.3,22.22-18.9,0-9.1-7.23-13.19-16.83-13.19a37.18,37.18,0,0,0-9.1.86Z"/><path class="cls-4" d="M305.59,230.93a30.6,30.6,0,0,1-12,2.08c-11.89,0-19.54-7.38-19.54-19.28,0-9.58,4.11-17.67,10.78-22.6a27.5,27.5,0,0,1,17-5.43c5,0,8.74,1.2,10,2.05l-2.29,6.43a19.6,19.6,0,0,0-8.63-1.66,17.82,17.82,0,0,0-11.69,4.26c-4.05,3.55-6.65,9.32-6.65,16,0,7.72,4,13.46,13,13.46a23.35,23.35,0,0,0,9.21-1.72Z"/><path class="cls-4" d="M320,186.42h7.93l-7.41,39h18l-1.31,6.92H311.25Z"/><path class="cls-4" d="M359.53,186.42l-8.71,45.88h-7.93l8.71-45.88Z"/><path class="cls-4" d="M398.84,232.3l3-21.57c.68-4.7,1.7-11.19,2.8-16.84h-.2c-2.37,5.36-5.08,11.28-7.58,16.18l-11.29,21.68h-6.15L377,210.4c-.54-5.14-.95-11-1.22-16.51h-.14c-1.17,5.26-2.56,12.17-3.69,16.84l-5.3,21.57h-7.35L371,186.42h10.46l2.44,21.43c.34,4.12.86,8.86.92,13.2h.24c1.63-4.34,3.85-9.14,5.82-13.14L402,186.42h10.62l-6,45.88Z"/><path class="cls-4" d="M426.19,219.21,420,232.3h-8.44l23-45.88h9.93l5.79,45.88h-8.26l-1.34-13.09Zm14-6.13-1.29-11.4c-.23-2.46-.5-6-.72-8.75H438c-1.21,2.78-2.41,6-3.72,8.71l-5.57,11.44Z"/><path class="cls-4" d="M466.93,193.33H454.25l1.36-6.91H489l-1.33,6.91H474.86l-7.36,39h-7.93Z"/><path class="cls-4" d="M513.92,211.89H497.46l-2.6,13.63h18.53l-1.29,6.78H485.64l8.7-45.88H519.8l-1.32,6.76H501l-2.3,12h16.51Z"/></g></g></svg>